<svg width="100" height="16" viewBox="0 0 100 16" fill="none" xmlns="http://www.w3.org/2000/svg">
<path d="M7.66043 6.58618C6.89631 6.58618 6.78003 7.10092 6.78003 7.41039V7.46408C6.78003 7.78618 6.91015 8.31039 7.66597 8.31039C8.42178 8.31039 8.5436 7.78618 8.5436 7.46408V7.41039C8.5436 7.09776 8.42732 6.58618 7.6632 6.58618H7.66043Z" fill="white"/>
<path d="M12.9651 0.323975H8.69049L6.48118 2.84398L4.27465 0.323975H0V5.19977L2.20931 7.71977L0 10.2366V15.1124H4.27465L6.48395 12.5924L8.69326 15.1124H12.9679V10.2366L10.7586 7.71662L12.9679 5.19661V0.323975H12.9651ZM4.68439 9.43451H3.2752V7.20188H2.41141V6.19767C3.18107 6.19767 3.43024 6.00188 3.60189 5.49977H4.68162V9.43451H4.68439ZM10.0249 7.53662C10.0249 8.3103 9.70101 9.50399 7.77133 9.50399H7.55815C5.64231 9.50399 5.29901 8.30714 5.29901 7.53662V7.37872C5.29901 6.58925 5.63677 5.43345 7.55815 5.43345H7.77133C9.69547 5.43345 10.0249 6.5924 10.0249 7.37872V7.53662Z" fill="white"/>
<path d="M26.827 7.87468H19.5152C19.637 8.48415 19.9803 8.71783 20.6115 8.71783C21.3507 8.71783 21.5003 8.54731 21.6664 8.37362H26.7743C26.4864 10.202 25.0634 11.8252 20.8469 11.8252C16.3286 11.8252 14.6315 9.88941 14.6315 7.51468V7.23362C14.6315 4.85889 16.3286 2.9231 20.8469 2.9231C25.3652 2.9231 26.8851 4.77994 26.8851 6.98415C26.8851 7.31257 26.8712 7.56204 26.8297 7.87468H26.827ZM19.5429 6.57994H21.8989C21.802 6.0652 21.4753 5.84415 20.7361 5.84415C20.0523 5.84415 19.6952 6.06204 19.5457 6.57994H19.5429Z" fill="white"/>
<path d="M38.8759 11.5124H33.5353L32.6466 9.32718L31.7164 11.5124H26.3759L28.6627 7.35981L26.4035 3.2356H31.7441L32.6328 5.43665L33.4966 3.2356H38.8509L36.6056 7.32823L38.8786 11.5124H38.8759Z" fill="white"/>
<path d="M48.8313 6.76583H45.3817V7.18899C45.3817 8.00057 45.545 8.19005 46.5999 8.19005C47.4221 8.19005 48.0921 8.12689 48.8452 8.03215V11.5153C48.1336 11.6416 46.9958 11.828 45.462 11.828C41.5611 11.828 40.5063 10.6248 40.5063 7.34689V6.76899H38.5627V3.2353H40.8773L42.3972 0.658447H45.3817V3.2353H48.8313V6.76583Z" fill="white"/>
<path d="M61.6469 7.87468H54.3351C54.457 8.48415 54.8003 8.71783 55.4315 8.71783C56.1707 8.71783 56.3202 8.54731 56.4863 8.37362H61.5943C61.3064 10.202 59.8833 11.8252 55.6668 11.8252C51.1485 11.8252 49.4514 9.88941 49.4514 7.51468V7.23362C49.4514 4.85889 51.1485 2.9231 55.6668 2.9231C60.1851 2.9231 61.705 4.77994 61.705 6.98415C61.705 7.31257 61.6912 7.56204 61.6497 7.87468H61.6469ZM54.3628 6.57994H56.7189C56.622 6.0652 56.2953 5.84415 55.5561 5.84415C54.8722 5.84415 54.5151 6.06204 54.3656 6.57994H54.3628Z" fill="white"/>
<path d="M74.2052 7.59362V11.5126H69.1526V8.0452C69.1526 7.31257 68.9339 7.05994 68.3719 7.05994C67.8099 7.05994 67.4943 7.37257 67.4943 7.93468V11.5126H62.4417V3.23573H64.6731L66.3979 5.85994C66.9046 3.89257 68.2335 2.9231 70.2185 2.9231C72.8486 2.9231 74.2025 4.47046 74.2025 7.59362H74.2052Z" fill="white"/>
<path d="M82.1453 0.112305H87.1841V11.5123H84.9526L83.3496 8.98285C82.8845 10.7007 81.4726 11.825 79.2134 11.825C76.42 11.825 74.9 10.0913 74.9 7.49863V7.24916C74.9 4.65652 76.42 2.92284 78.9809 2.92284C80.4454 2.92284 81.5141 3.46915 82.1426 4.43863V0.112305H82.1453ZM82.1453 7.37548C82.1453 6.79758 81.8297 6.43758 81.049 6.43758C80.2682 6.43758 79.9526 6.78179 79.9526 7.37548C79.9526 7.96916 80.2682 8.31337 81.049 8.31337C81.8297 8.31337 82.1453 7.95337 82.1453 7.37548Z" fill="white"/>
<path d="M94.7975 3.2356H99.9996L97.2338 10.3093C96.071 13.3219 94.5511 14.9482 91.0322 14.9482C89.7725 14.9482 88.8285 14.7777 88.308 14.6356V11.1998C88.7039 11.2472 89.1967 11.2788 89.5123 11.2788C90.1546 11.2788 90.3207 11.124 90.4702 10.7798L87.2947 3.2356H92.6878L93.7426 7.71666L94.7975 3.2356Z" fill="white"/>
</svg>
