<svg width="403" height="80" viewBox="0 0 403 80" fill="none" xmlns="http://www.w3.org/2000/svg">
<path d="M32.9078 32V67.2365H26.1955L8.69644 45.828V67.2365H0.730469V32H7.44278L24.8373 53.4085V32H32.9078Z" fill="white"/>
<path d="M41.1872 32H49.2576V67.2365H41.1872V32Z" fill="white"/>
<path d="M89.6099 32V67.2365H82.8975L65.503 45.8541V67.2626H57.537V32H64.2493L81.6439 53.4085V32H89.6099Z" fill="white"/>
<path d="M125.052 60.7277V67.2626H97.8893V32H124.373V38.535H105.96V46.1939H122.231V52.4936H105.986V60.7277H125.052Z" fill="white"/>
<path d="M274.212 64.3611L276.928 58.1921C279.88 60.3617 284.32 61.8517 288.525 61.8517C293.304 61.8517 295.237 60.2571 295.237 58.0875C295.237 55.323 291.709 54.5026 287.592 53.5451C281.821 52.2029 274.891 50.5913 274.891 42.9787C274.891 37.0188 279.671 32 289.674 32C294.114 32 298.528 33.0195 301.845 35.0845L299.337 41.2535C296.047 39.4237 292.756 38.5088 289.674 38.5088C284.894 38.5088 282.961 40.3386 282.961 42.5082C282.961 45.223 286.473 46.0386 290.578 46.9921C296.355 48.3338 303.307 49.9486 303.307 57.5125C303.307 63.3416 298.423 68.3866 288.42 68.3866C282.961 68.4912 277.294 66.766 274.212 64.3611Z" fill="white"/>
<path d="M219.573 32.1045C208.655 32.1045 200.585 39.6589 200.585 50.2978C200.585 60.8322 208.655 68.4911 219.573 68.5957C225.71 68.5957 230.725 66.4261 234.016 62.296L228.792 57.4863C226.52 60.3355 223.569 61.7209 220.043 61.7209C213.435 61.7209 208.786 57.1464 208.786 50.4024C208.786 43.6583 213.461 39.0838 220.043 39.0838C223.464 39.0838 226.416 40.4692 228.792 43.2139L234.016 38.4042C230.699 34.2741 225.606 32.1045 219.573 32.1045Z" fill="white"/>
<path fill-rule="evenodd" clip-rule="evenodd" d="M245.482 60.3618H261.728L264.809 67.9162H273.324L257.653 32.6797H249.687L234.095 67.9162H242.4L245.482 60.3618ZM253.657 40.5478L259.22 54.0621H248.094L253.657 40.5478Z" fill="white"/>
<path d="M316.941 32.6797H308.87V67.9162H316.941V32.6797Z" fill="white"/>
<path d="M357.397 32.6797V67.9162H350.685L333.186 46.5077V67.9162H325.22V32.6797H331.932L349.327 54.0882V32.6797H357.397Z" fill="white"/>
<path fill-rule="evenodd" clip-rule="evenodd" d="M382.731 32.1045C371.605 32.1045 363.534 39.7635 363.534 50.2978C363.534 60.7015 371.605 68.4911 382.731 68.4911C393.753 68.4911 401.928 60.8322 401.928 50.2978C401.928 39.7635 393.753 32.1045 382.731 32.1045ZM382.626 38.9793C388.895 38.9793 393.544 43.5537 393.544 50.2978C393.544 56.9373 388.895 61.5118 382.626 61.6163C376.358 61.6163 371.709 57.0419 371.709 50.2978C371.709 43.5537 376.384 38.9793 382.626 38.9793Z" fill="white"/>
<path d="M172.321 21.7766C171.293 21.5423 170.133 21.3234 168.837 21.1425C161.206 19.8432 154.829 20.9788 149.757 23.0001H149.531L148.873 21.3648L148.407 20.2154C148.357 20.1223 148.332 20.062 148.332 20.062L143.4 7.86687C143.747 8.06888 144.089 8.26982 144.427 8.4687C145.571 9.14181 146.675 9.79137 147.811 10.3793C148.83 10.9101 149.298 11.4374 149.127 12.7125C149.008 13.7598 149.253 14.8161 149.82 15.7027C150.386 16.5894 151.239 17.2521 152.235 17.5789C153.225 17.961 154.311 18.0117 155.332 17.7236C156.353 17.4356 157.254 16.824 157.902 15.9797C158.537 15.1448 158.888 14.1264 158.902 13.0752C158.917 12.024 158.595 10.9959 157.984 10.1432C157.764 9.83161 157.516 9.54406 157.295 9.2888C157.192 9.17 157.096 9.0582 157.011 8.95422C157.86 7.47044 158.822 6.0094 159.763 4.57812C160.655 3.22348 161.528 1.89549 162.273 0.600098C163.025 1.88493 163.908 3.20134 164.81 4.54464C165.767 5.97224 166.746 7.4302 167.609 8.91286C167.516 9.03037 167.409 9.1564 167.295 9.29035C167.085 9.53746 166.852 9.81152 166.644 10.1088C166.04 10.9666 165.726 11.9975 165.75 13.0487C165.773 14.0999 166.132 15.1156 166.774 15.9453C167.43 16.7834 168.336 17.3869 169.359 17.6662C170.382 17.9455 171.468 17.8859 172.454 17.4962C173.447 17.1602 174.295 16.4902 174.854 15.599C175.413 14.7079 175.649 13.6502 175.524 12.604C175.346 11.3305 175.803 10.7981 176.821 10.2604C177.939 9.66459 179.032 9.00976 180.164 8.3311C180.505 8.12651 180.85 7.91975 181.2 7.71178L175.89 22.9501C174.736 22.4584 173.541 22.0658 172.321 21.7766Z" fill="#E45809"/>
<path fill-rule="evenodd" clip-rule="evenodd" d="M190.745 47.6964C190.427 46.6454 189.781 45.8277 188.917 45.1829C188.63 44.9677 188.329 44.7778 188.029 44.5884C187.768 44.424 187.508 44.2597 187.257 44.0797C184.82 42.3316 182.601 40.2983 180.648 38.0233C180.402 37.7197 180.211 37.3753 180.085 37.0058C180.011 36.8049 179.982 36.5887 179.953 36.3712C179.934 36.2244 179.914 36.077 179.881 35.9334C179.663 34.9566 179.139 34.0744 178.385 33.4146C177.62 32.7641 176.769 32.2227 175.856 31.806C175.604 31.6855 175.346 31.5727 175.103 31.4665L175.102 31.466C174.964 31.4057 174.831 31.3475 174.706 31.2912C176.576 30.0244 176.681 28.7187 176.296 27.7147C175.248 25.8152 171.967 24.8406 170.482 24.4867C169.676 24.3044 168.767 24.1342 167.75 23.9934C150.691 21.114 141.619 33.6317 141.619 33.6317C136.17 39.8839 135.05 46.935 135.133 51.9861V52.5893C135.133 52.6797 135.137 52.7701 135.141 52.8606C135.143 52.9122 135.145 52.9639 135.147 53.0156C135.147 53.0652 135.151 53.1148 135.156 53.1648C135.159 53.1931 135.162 53.2216 135.164 53.2502C135.231 54.9513 135.449 57.08 136.05 58.7959V58.4581C136.074 57.5751 136.153 56.6944 136.287 55.8213C136.505 54.7423 136.793 53.6785 137.147 52.6362C137.204 52.5013 137.253 52.363 137.293 52.222C137.528 51.5651 137.789 50.9163 138.075 50.2756C140.007 46.0007 142.963 42.2661 146.682 39.4013C148.788 37.7662 151.138 36.4724 153.647 35.5674C155.57 34.8626 157.587 34.4439 159.632 34.3248C161.096 34.257 162.563 34.3414 164.01 34.5768C164.058 34.5842 164.105 34.5917 164.153 34.5993C164.665 34.6804 165.165 34.7596 165.703 34.6344C166.92 34.3548 168.09 33.9035 169.179 33.2939C168.089 34.0098 162.493 38.0889 165.066 44.8894C167.751 51.9847 175.091 51.104 177.081 50.2286L177.048 50.3538L177.048 50.3551C177.006 50.5113 176.97 50.6497 176.937 50.789C176.733 51.6442 176.576 52.5022 176.713 53.3909C176.797 54.0739 177.01 54.7345 177.343 55.3373C178.367 57.072 179.994 57.7597 181.909 57.8937C182.844 57.9389 183.78 57.8288 184.679 57.568C186.522 57.0773 188.067 56.1524 189.164 54.5531C189.457 54.1269 189.567 53.6724 189.406 53.1898C189.202 52.5264 188.863 51.912 188.41 51.3848C187.958 50.8576 187.402 50.429 186.777 50.1254C186.269 49.8774 185.994 49.4753 185.998 48.9042C185.998 48.5289 186.266 48.2996 186.636 48.2648C187.173 48.2139 187.655 48.6428 187.804 49.1643C187.922 49.5256 188.088 49.8695 188.297 50.1871C188.424 50.3617 188.585 50.5098 188.77 50.6228C189.583 51.2072 190.423 50.7421 190.707 50.0021C190.982 49.2601 190.995 48.447 190.745 47.6964ZM169.378 33.2403L169.366 33.1987L169.402 33.18C169.396 33.2008 169.388 33.221 169.378 33.2403ZM180.484 43.3196C179.097 42.8987 177.709 42.476 176.321 42.0515C176.219 42.0206 176.118 41.9905 176.016 41.9603C175.753 41.8821 175.489 41.8039 175.23 41.711C175.129 41.6762 174.998 41.5662 174.987 41.4778C174.968 41.3182 175.116 41.3082 175.239 41.2998L175.264 41.2981L179.139 40.9845C179.14 40.9893 179.14 40.9943 179.139 40.9992C179.231 40.9938 179.321 40.9879 179.412 40.982C179.615 40.9688 179.817 40.9557 180.02 40.9483C180.117 40.936 180.215 40.9621 180.293 41.021C180.371 41.0799 180.422 41.1669 180.437 41.2633C180.571 41.8343 180.705 42.4041 180.848 42.9751C180.927 43.2955 180.802 43.4161 180.484 43.3196Z" fill="#E45809"/>
<path fill-rule="evenodd" clip-rule="evenodd" d="M182.314 71.5846L182.539 71.5899C182.631 71.5822 182.722 71.5652 182.811 71.5389L182.861 71.6006C182.638 71.9049 182.399 72.1975 182.145 72.4773C179.541 75.1221 176.367 76.7227 172.762 77.4975C171.965 77.653 171.157 77.7458 170.345 77.775C167.713 77.9225 165.24 77.3112 162.935 76.0605C160.901 74.9573 159.266 73.3996 157.966 71.4907C156.546 69.4022 155.683 67.0871 155.203 64.6205C155.195 64.5817 155.185 64.5428 155.174 64.5039C155.173 64.5006 155.169 64.4973 155.157 64.4872C155.15 64.4809 155.139 64.4716 155.124 64.4583C155.037 64.5732 154.957 64.6932 154.884 64.8176C154.357 65.8283 154.063 66.9209 153.848 68.0348C153.696 68.7565 153.584 69.4859 153.511 70.2199C153.443 71.0634 153.422 71.9102 153.448 72.7561C153.51 75.0672 154.011 77.267 155.328 79.2228C155.338 79.2373 155.348 79.2524 155.357 79.2688C155.371 79.2937 155.385 79.3216 155.402 79.3549C155.417 79.384 155.434 79.4182 155.455 79.4574C155.396 79.4474 155.344 79.4391 155.295 79.4314C155.192 79.4153 155.106 79.4018 155.022 79.3809C153.9 79.1007 152.806 78.7152 151.756 78.2294C150.46 77.6271 149.246 76.8612 148.145 75.9506C146.909 74.9427 145.867 73.7196 145.068 72.3406C144.825 71.9181 144.617 71.4757 144.408 71.0324L144.343 70.8952C144.309 70.8215 144.274 70.7478 144.238 70.6743C143.836 69.7855 143.558 68.846 143.41 67.882C143.259 66.9067 143.21 65.9183 143.265 64.9329C143.27 64.4316 143.31 63.9313 143.384 63.4355C143.474 62.9393 143.597 62.4491 143.72 61.9588L143.721 61.9561C143.772 61.7505 143.824 61.545 143.873 61.339C144.088 60.4314 144.492 59.6043 144.93 58.792C144.951 58.7386 144.966 58.6828 144.973 58.6258C144.869 58.7211 144.763 58.8147 144.658 58.9083C144.413 59.1253 144.168 59.3423 143.944 59.5802C142.938 60.6492 142.101 61.8652 141.463 63.1862C140.982 64.14 140.668 65.1686 140.533 66.2278C140.492 66.5999 140.509 66.9775 140.526 67.3716C140.534 67.5569 140.543 67.7459 140.545 67.9397C140.475 67.8388 140.404 67.7397 140.332 67.6411L140.331 67.6395C140.161 67.4036 139.993 67.1706 139.851 66.9262C139.095 65.5859 138.566 64.1302 138.285 62.6178C138.149 62.0223 138.05 61.4188 137.991 60.8108C137.984 60.7124 137.977 60.6138 137.97 60.5152C137.91 59.6913 137.85 58.8582 137.935 58.0453C138.096 56.4612 138.493 54.9099 139.111 53.442C140.275 50.6859 142.028 48.3668 144.233 46.356C146.326 44.4705 148.717 42.9436 151.309 41.8372C153.753 40.7791 156.335 40.0689 158.977 39.7272C159.482 39.6615 159.99 39.6119 160.497 39.5864C160.805 39.5877 161.112 39.6065 161.417 39.6427L161.395 39.6846L161.362 39.7499C161.328 39.8159 161.296 39.8783 161.261 39.939C160.573 41.1433 160.144 42.4771 159.999 43.856C159.83 45.3761 160.096 46.84 160.652 48.2488C161.809 51.1792 163.974 53.068 166.895 54.1471C167.863 54.5114 168.881 54.7248 169.914 54.7798C170.299 54.7983 170.686 54.7831 171.073 54.7679C171.248 54.761 171.424 54.7541 171.599 54.7503H171.838C171.785 54.8379 171.733 54.9214 171.683 55.0027L171.68 55.0064C171.602 55.1329 171.527 55.2543 171.454 55.3777C170.52 56.9757 170.077 58.8132 170.182 60.6607C170.251 61.9762 170.565 63.2674 171.109 64.4677C172.334 67.2506 174.35 69.2534 177.093 70.5335C178.336 71.1146 179.677 71.4557 181.047 71.5389C181.469 71.5651 181.892 71.5749 182.314 71.5846ZM145.003 58.5936L144.981 58.6177L145.003 58.6204V58.5936Z" fill="#E45809"/>
<path d="M186.542 59.0829C186.779 58.7155 187.149 58.4538 187.575 58.3523C187.995 58.2598 188.229 58.3684 188.411 58.7585C188.697 59.3456 188.799 59.9743 188.806 60.733C188.76 61.8497 188.419 62.9516 187.552 63.8779C186.63 64.8945 185.533 65.7384 184.314 66.3699C184.135 66.4508 183.943 66.5003 183.747 66.516C183.557 66.5388 183.366 66.2627 183.445 66.0602C183.719 65.3645 183.401 64.8363 182.972 64.3484C182.459 63.772 181.814 63.3278 181.092 63.0535C179.825 62.5561 178.815 61.7089 177.856 60.7826C177.657 60.5963 177.538 60.359 177.657 60.0909C177.71 59.9623 177.802 59.8539 177.921 59.7816C178.04 59.7092 178.179 59.6767 178.318 59.6888C178.548 59.703 178.778 59.7484 179.007 59.7938C179.124 59.8169 179.24 59.84 179.357 59.859C179.403 59.8664 179.448 59.8738 179.494 59.8814C179.531 59.8876 179.569 59.8938 179.606 59.9C179.889 59.9473 180.173 59.9946 180.458 60.0226L180.724 60.0487C181.429 60.1185 182.136 60.1884 182.843 60.2169C183.556 60.2574 184.27 60.2476 184.981 60.1874C185.678 60.1177 186.152 59.6311 186.542 59.0829Z" fill="#E45809"/>
</svg>
