<svg width="71" height="31" viewBox="0 0 71 31" fill="none" xmlns="http://www.w3.org/2000/svg">
<path d="M23.4525 23.3095L23.5906 22.3606L23.4269 21.4412L23.248 20.5169L23.1815 19.5877L23.2326 18.6486L23.2377 17.7144L22.9514 16.7999L23.115 15.856L22.8235 14.9415L22.8542 14.0368L22.0053 14.0516L21.1257 14.0761L20.2512 14.2187L19.3717 14.263L18.446 14.2482L18.2926 15.1824L17.9398 16.028L17.7761 16.9179L17.7608 17.8373L17.5 18.7027L17.2034 19.5582L16.8607 20.4038L16.6562 21.2544L16.4261 21.3871L16.2369 20.4628L15.7715 19.6663L15.5158 18.7961L15.0453 18.0094L14.7999 17.1343L14.4112 16.3132L14.1862 15.4331L13.8078 14.5924L12.9128 14.676L12.0435 14.8186L11.1639 14.8284L10.2792 14.7546L9.3536 14.8726L9.34338 15.8609L9.57861 16.7803L9.61441 17.7095V18.6437L9.77294 19.568L9.81385 20.5021L10.0082 21.4216L9.98772 22.3557L10.0747 23.2849L10.1463 24.2142L10.1718 25.1483L10.1616 26.1415L11.0514 25.9596L11.885 25.9989L12.7032 25.8612L13.5828 25.8907L13.5367 24.9222L13.5316 23.9929L13.2606 23.0834L13.189 22.164L13.1072 21.2396L13.2606 20.3399L13.3117 20.3645L13.9152 21.1511L14.0584 22.1443L14.4112 23.0539L15.03 23.8602L15.209 24.8386L15.659 25.7137L16.5232 25.5466L17.413 25.7236L18.2824 25.5417L18.625 24.6124L18.6199 23.6094L18.9114 22.6802L19.0955 21.7215L19.6069 20.8414L19.8114 19.9171L19.9393 19.863L20.0569 20.7726L20.1541 21.6969L20.149 22.6261L20.3126 23.5406L20.3228 24.4698L20.3995 25.3794L21.2126 25.2565L22.0564 25.3303L22.8798 25.2565L23.7287 25.1828L23.6724 24.2289L23.4525 23.3095Z" fill="url(#paint0_linear_16024_6804)"/>
<path d="M37.1682 22.4935L36.575 21.7412L36.2477 20.8759L35.9051 20.0155L35.5369 19.1649L35.0664 18.3635L34.6829 17.5228L34.3709 16.6526L33.8953 15.8512L33.6141 14.9612L33.1743 14.1451L32.6476 13.442L31.7424 13.4863L30.7605 13.4715L29.7787 13.4174L28.8071 13.4863L27.9121 13.7518L27.5184 14.5384L27.3649 15.4578L27.0121 16.3182L26.874 17.2376L26.5058 18.0931L26.2808 18.9879L25.8973 19.8336L25.6518 20.7235L25.4063 21.6085L25.2171 22.5132L24.895 23.3785L24.4961 24.2241L24.266 25.173L25.2171 25.0944L26.1172 25.0698L27.0019 24.8879L27.8763 24.8682L28.0298 24.0471L28.3059 23.1867L29.2213 23.0736L30.0957 23.054L30.9702 23.0048L31.8396 22.9704L32.714 22.9507L33.522 22.9901L33.8596 23.7128L34.2891 24.4552L35.1789 24.293L36.079 24.234L36.9841 24.2831L37.9404 24.2536L37.3574 23.4375L37.158 22.5082L37.1682 22.4935ZM31.6606 20.5416L30.7912 20.4728L29.9372 20.5613L29.1037 20.6743L29.3696 19.8926L29.4719 19.0519L29.7276 18.2554L29.8861 17.4343L30.1469 16.5985L30.8935 16.5198L31.231 17.3507L31.5583 18.1226L31.8754 18.8994L32.1771 19.6812L32.4123 20.3892L31.6606 20.5367V20.5416Z" fill="url(#paint1_linear_16024_6804)"/>
<path d="M42.1133 12.6455L41.198 12.8077L40.3184 12.8569L39.449 13.0044L38.5592 12.8569L37.7921 13.0732L37.7103 13.9336L37.833 14.8629L37.9302 15.797L37.9251 16.7312L38.0887 17.6555L38.1041 18.5847L38.1859 19.514L38.3137 20.4383L38.2524 21.3774L38.3393 22.3066L38.416 23.2359L38.4876 24.1848L39.3263 23.993L40.1701 24.1356L40.9883 23.9881L41.7196 23.8701L41.6275 23.0244L41.6787 22.0903L41.6838 21.161L41.4025 20.2515L41.5662 19.3124L41.2798 18.3684L41.74 18.3488L42.0622 19.2878L42.4048 20.2023L42.86 21.0775L43.2179 21.9821L43.4992 22.9212L43.9492 23.7816L44.8237 23.8554L45.6879 23.7472L46.4652 23.5259L46.7056 22.6508L47.0329 21.7265L47.3959 20.812L47.6363 19.868V18.8699L48.0403 17.98L48.3267 17.9112L48.3062 18.8601L48.521 19.7746L48.4801 20.7087L48.6028 21.6281L48.5466 22.5574L48.6488 23.4964L49.5029 23.4227L50.3262 23.2801L51.1597 23.2752L52.0751 23.3145L51.9882 22.3115L51.8706 21.3823L51.845 20.4481L51.6404 19.5287L51.6098 18.5946L51.4717 17.6703L51.4206 16.741L51.3132 15.8118L51.2927 14.8825L51.2365 13.9484L51.1904 13.0192L51.17 12.0899L50.2802 12.026L49.4108 12.2571L48.5363 12.3357L47.6465 12.2177L46.6851 12.2915L46.4448 13.2355L46.3681 14.1451L45.9948 14.9858L45.8311 15.8757L45.7442 16.7804L45.3862 17.6211L45.2839 18.5208L44.926 19.3321L44.8083 19.4058L44.481 18.5602L44.1231 17.7293L43.7089 16.9131L43.489 16.033L43.1105 15.207L42.8037 14.3565L42.4099 13.5403L42.1133 12.6455Z" fill="url(#paint2_linear_16024_6804)"/>
<path d="M65.6981 21.4856L65.3095 20.64L64.931 19.7943L64.5731 18.9437L64.2816 18.0587L63.7344 17.2868L63.315 16.4608L63.0798 15.5562L62.6963 14.7154L62.2923 13.8845L61.7655 13.1028L61.5099 12.208L61.0343 11.3574L60.0217 11.5344L59.0399 11.4656L58.0733 11.6377L57.0915 11.559L56.125 11.7458L55.8386 12.6308L55.5778 13.5207L55.3783 14.4205L54.9897 15.271L54.7544 16.1609L54.4527 17.0361L54.2328 17.9309L53.8953 18.7913L53.7317 19.7009L53.4504 20.576L53.2663 21.4856L52.7958 22.3067L52.7038 23.1425L53.5067 23.2163L54.4016 23.1032L55.2863 22.9508L56.217 23.0048L56.4062 22.1395L56.6363 21.3037L57.5262 21.343L58.3955 21.2103L59.2598 21.0923L60.1393 21.166L60.9985 20.9448L61.8985 20.93L62.1695 21.7708L62.6093 22.4788L63.4685 22.4394L64.3634 22.3165L65.2634 22.2723L66.0612 22.2379L65.6981 21.4856ZM59.945 18.7176L59.0705 18.5799L58.2268 18.8306L57.4188 18.7323L57.6029 17.9702L57.7409 17.1393L58.0836 16.3674L58.2523 15.5464L58.4722 14.7302L59.045 14.7646L59.8274 16.2199L60.0371 17.041L60.528 17.7441L60.8348 18.5651L59.945 18.7176Z" fill="url(#paint3_linear_16024_6804)"/>
<path d="M69.6767 24.0618L70.0602 23.2456L70.0091 22.2377L70.3415 20.8856L69.2266 19.9023L69.109 18.8846L70.0142 17.9209L69.8147 16.1411L69.2011 15.7281L69.646 15.3004L69.7227 13.4714L68.9607 12.9502L69.5079 12.3307L68.8329 10.8853L68.6283 10.546L69.6409 9.55287L68.8022 8.33846L69.3852 4.81818L66.4089 7.25189L65.6521 7.11423L65.11 7.29615L64.1486 6.26366L62.6451 6.51932L61.5507 6.91757L60.7018 7.18306L60.0524 7.31581L58.9325 7.03557L57.9864 7.52231L57.2091 7.37973L56.0994 7.52723L55.3783 7.7583L54.4936 7.31089L53.2458 7.50756L52.3611 7.59606L51.1082 7.65014L50.602 8.04347L49.7071 7.33056L48.1882 8.09755L47.4365 8.54005L47.0018 8.56463L46.2552 8.2303L44.496 7.78289L43.9028 8.44172L43.0539 10.3739L44.0562 11.2737L45.2171 9.98553L45.4779 10.0544L46.6132 10.5559L48.0706 10.4723L49.1701 9.82328L49.4514 9.6807L50.5764 10.5854L51.8702 9.58728L52.4839 9.55778L53.4862 9.45945L54.151 9.3562L55.2402 9.90686L56.488 9.45945L57.1528 9.37095L58.3086 9.58237L59.1933 9.13004L60.0064 9.33654L61.1774 9.09562L62.2155 8.77604L63.1054 8.44172L63.3815 8.39255L64.4912 9.58728L65.8106 9.14479L66.9765 9.3562L66.0407 10.2756L66.9919 11.7457L67.1146 12.0063L65.9538 13.319L67.6311 14.4596L66.0305 15.9936L67.8817 17.2375V17.2572L66.9561 18.2405L67.1402 19.5532L67.2578 20.8414L68.0709 21.5592L67.9533 22.0558L67.9942 22.872L67.6618 23.575L66.8589 23.4177L65.5498 23.8897L65.1202 24.165L64.2458 23.5947L62.9877 24.0667L61.832 24.1011L61.249 24.6173L60.6609 24.2486H59.2597L58.4517 24.4748L57.2346 24.1994L56.396 24.8976L55.9869 24.7599L54.5038 24.4993L53.3072 25.1287L52.7447 25.404L52.2384 25.2713L50.7247 24.5878L49.9679 25.2319L49.2161 24.6518L47.7638 25.0893L46.7717 25.5908L46.0558 25.7727L45.529 25.8072L44.0767 24.9812L43.3045 25.8268L42.4607 25.1287L41.034 26.0874L40.7578 26.1661L39.418 25.1926L38.2111 26.5053H37.7406L37.0656 26.5004L35.7871 25.7678L34.8564 26.289L33.9615 25.8121L32.995 26.171L31.696 25.5908L30.5966 26.8544L30.0903 26.8839L29.1135 27.1051L28.5613 27.0904L27.605 26.5545L25.9685 26.3873L25.2884 26.997L24.5264 26.5741L23.0997 27.1101L22.5883 27.3313L21.7649 26.9921L20.4302 27.1445L19.8166 27.3608L18.7375 26.8249L17.4284 27.5181L17.1062 27.6214L15.7766 26.6037L14.9277 27.528L14.1504 26.8839L12.831 27.5378L11.8287 27.5526L11.0463 28.0344L10.2127 27.823L9.19508 28.1573L8.75017 28.118L8.7604 28.0934L8.23878 26.9773L8.13651 26.2693L8.11094 25.1139L7.68137 24.5387L8.28481 23.6242L7.70183 22.7294L8.29504 21.746L7.37966 20.4825L7.27226 20.1727L8.03934 19.0321L7.06771 17.8275L6.99612 17.2621V16.736L7.80922 15.6888L7.52284 14.0761L7.0268 13.5796C6.91941 13.555 6.81713 13.5304 6.70974 13.5107C6.45405 13.4665 6.19836 13.4272 5.94266 13.3829C5.58469 13.3141 5.21649 13.2403 4.86364 13.1322L4.48521 13.8598L5.61026 15.0005L5.64606 15.1922L4.96592 16.0723L4.94546 17.3703L5.10399 18.6093L5.53355 19.1353L5.02217 19.8974L5.52844 21.3724L5.87107 21.8444L5.31366 22.7638L5.86595 23.6144L5.21649 24.6075L6.08074 25.7629L6.09096 26.3726L6.24949 27.5231L6.55632 28.172L5.68697 30.4779L8.3922 30.06L9.44565 30.1584L10.2946 29.8781L11.3991 30.1534L12.4424 29.5094L13.3424 29.4995L13.8589 29.2439L15.1118 30.2911L16.0221 29.3029L16.7073 29.824L18.1648 29.3569L18.7682 29.0521L19.6683 29.4995L20.9058 29.0718L21.4632 29.0079L22.6036 29.4799L23.8872 28.9243L24.3525 28.7522L25.5748 29.4356L26.6794 28.4375L26.9555 28.467L27.9834 29.0423L29.3386 29.0767L30.3153 28.8407L31.6091 28.762L32.2586 28.0098L32.9183 28.2999L33.803 27.9754L34.882 28.5506L35.7769 28.0491L36.4877 28.4621L37.7355 28.4769L39.1418 28.4621L39.6941 27.8574L40.364 28.3441L41.9442 27.8721L42.3329 27.6165L43.5091 28.59L44.496 27.5083L45.033 27.8131L46.2961 27.7296L47.5388 27.4296L48.4746 26.938L48.7866 26.8446L50.0446 27.8082L51.0776 26.9183L51.4458 27.0855L52.9595 27.5034L54.2584 26.8691L54.8618 26.5545L55.3834 26.643L56.8358 27.1346L57.7869 26.3431L58.5029 26.5053L59.5512 26.2152H60.0524L61.4587 27.1051L62.6553 26.0432L63.3968 26.0235L63.9849 25.8022L65.1049 26.5348L66.4907 25.6498L67.0277 25.4581L67.6516 25.581L70.5 26.4267L69.6767 24.0618Z" fill="url(#paint4_linear_16024_6804)"/>
<path d="M25.2681 11.5638H25.1913L25.2118 11.5442L25.2681 11.5638Z" fill="url(#paint5_linear_16024_6804)"/>
<path d="M11.9874 8.35331C11.9874 8.79581 11.921 9.19897 11.7829 9.5628C11.5681 10.1331 11.1795 10.6051 10.6272 10.9689C9.58393 11.6573 7.7634 11.9375 6.18322 11.9375C5.86104 11.9375 5.55932 11.9228 5.26784 11.908C2.02054 11.7114 0.440354 10.492 0.50172 7.91573H3.6314C3.68765 8.76631 4.43939 9.2973 6.18322 9.31205C7.7634 9.3268 8.5407 8.85972 8.5407 8.22056C8.5407 7.7289 8.17762 7.35524 6.96052 7.16841L5.49285 6.94225C3.28877 6.57842 0.79321 6.21951 0.79321 3.50062C0.79321 1.31765 2.64954 0 6.20879 0C9.44074 0 11.7011 0.929241 11.655 3.9972H8.55093C8.40263 3.15646 7.6918 2.62547 6.12696 2.62547C4.75645 2.62547 4.13256 3.03846 4.13256 3.66287C4.13256 4.10045 4.44962 4.50361 5.44682 4.66094L6.68437 4.87727C8.61741 5.19194 11.0721 5.3591 11.7829 7.193C11.9107 7.52241 11.9874 7.90099 11.9874 8.35331Z" fill="url(#paint6_linear_16024_6804)"/>
<path d="M24.0868 3.46621C23.6368 1.38157 21.9186 0.373663 19.2389 0.373663H12.8057V11.5639H16.2831V8.92364H19.2491C21.9186 8.92364 23.6368 7.92557 24.0868 5.83601C24.1687 5.47218 24.2096 5.07885 24.2096 4.65111C24.2096 4.22336 24.1687 3.83004 24.0868 3.46621ZM18.9576 6.14084H16.2831V3.15646H18.9576C20.0264 3.15646 20.7066 3.66287 20.7066 4.65111C20.7066 5.63935 20.0264 6.14084 18.9576 6.14084Z" fill="url(#paint7_linear_16024_6804)"/>
<path d="M28.587 0.373663V11.5639L25.2681 11.5638L25.2118 11.5442L25.1913 11.5638L25.1096 11.5639V0.373663H28.587Z" fill="url(#paint8_linear_16024_6804)"/>
<path d="M41.7245 0.373663V11.5639H37.8022L37.2806 10.8018L35.8027 8.63356L33.3276 5.01985H33.0207V11.5639H29.6302V0.373663H33.6344L38.0119 6.91275H38.3289V0.373663H41.7245Z" fill="url(#paint9_linear_16024_6804)"/>
<defs>
<linearGradient id="paint0_linear_16024_6804" x1="29.3411" y1="-35.3925" x2="31.558" y2="38.6143" gradientUnits="userSpaceOnUse">
<stop stop-color="#D0FF01"/>
<stop offset="1" stop-color="#00A6D4"/>
</linearGradient>
<linearGradient id="paint1_linear_16024_6804" x1="27.3586" y1="-36.9661" x2="29.5931" y2="39.2412" gradientUnits="userSpaceOnUse">
<stop stop-color="#D0FF01"/>
<stop offset="1" stop-color="#00A6D4"/>
</linearGradient>
<linearGradient id="paint2_linear_16024_6804" x1="29.3074" y1="-34.2985" x2="31.5015" y2="39.3799" gradientUnits="userSpaceOnUse">
<stop stop-color="#D0FF01"/>
<stop offset="1" stop-color="#00A6D4"/>
</linearGradient>
<linearGradient id="paint3_linear_16024_6804" x1="27.2726" y1="-35.5576" x2="29.4115" y2="39.9891" gradientUnits="userSpaceOnUse">
<stop stop-color="#D0FF01"/>
<stop offset="1" stop-color="#00A6D4"/>
</linearGradient>
<linearGradient id="paint4_linear_16024_6804" x1="34.2121" y1="-7.1888" x2="36.4624" y2="27.6081" gradientUnits="userSpaceOnUse">
<stop stop-color="#D0FF01"/>
<stop offset="1" stop-color="#00A6D4"/>
</linearGradient>
<linearGradient id="paint5_linear_16024_6804" x1="-652.833" y1="-18743.9" x2="3774.44" y2="26413.2" gradientUnits="userSpaceOnUse">
<stop stop-color="#D0FF01"/>
<stop offset="1" stop-color="#00A6D4"/>
</linearGradient>
<linearGradient id="paint6_linear_16024_6804" x1="32.576" y1="1.35569" x2="34.3917" y2="76.4208" gradientUnits="userSpaceOnUse">
<stop stop-color="#D0FF01"/>
<stop offset="1" stop-color="#00A6D4"/>
</linearGradient>
<linearGradient id="paint7_linear_16024_6804" x1="32.361" y1="-1.49979" x2="34.4179" y2="78.574" gradientUnits="userSpaceOnUse">
<stop stop-color="#D0FF01"/>
<stop offset="1" stop-color="#00A6D4"/>
</linearGradient>
<linearGradient id="paint8_linear_16024_6804" x1="27.1618" y1="-2.8255" x2="27.7893" y2="77.2962" gradientUnits="userSpaceOnUse">
<stop stop-color="#D0FF01"/>
<stop offset="1" stop-color="#00A6D4"/>
</linearGradient>
<linearGradient id="paint9_linear_16024_6804" x1="35.2348" y1="-1.17518" x2="36.9275" y2="28.1456" gradientUnits="userSpaceOnUse">
<stop stop-color="#D0FF01"/>
<stop offset="1" stop-color="#00A6D4"/>
</linearGradient>
</defs>
</svg>
