<svg width="193" height="127" viewBox="0 0 193 127" fill="none" xmlns="http://www.w3.org/2000/svg">
<path d="M32.6631 32V66.9741H26.0008L8.63209 45.725V66.9741H0.725438V32H7.38776L24.6528 53.2491V32H32.6631Z" fill="white"/>
<path d="M40.8807 32H48.8911V66.9741H40.8807V32Z" fill="white"/>
<path d="M88.9422 32V66.9741H82.2799L65.0149 45.7509V67H57.1082V32H63.7706L81.0356 53.2491V32H88.9422Z" fill="white"/>
<path d="M124.121 60.5137V67H97.161V32H123.447V38.4863H105.171V46.0882H121.322V52.341H105.197V60.5137H124.121Z" fill="white"/>
<path d="M0 104.5C0 94.3248 7.71855 87.0998 18.1598 87.0998C23.93 87.0998 28.8009 89.1748 31.9733 93.1248L26.9774 97.7248C24.7043 95.0998 21.8817 93.7748 18.6094 93.7748C12.3147 93.7748 7.84344 98.1498 7.84344 104.6C7.84344 111.05 12.2897 115.425 18.6094 115.425C21.9816 115.425 24.8042 114.1 26.9774 111.375L31.9733 115.975C28.8259 119.925 24.0299 122 18.1598 122C7.71855 121.9 0 114.575 0 104.5Z" fill="white"/>
<path d="M58.4757 114.125H42.9387L39.9912 121.35H32.0479L46.9604 87.6504H54.579L69.5665 121.35H61.4233L58.4757 114.125ZM56.0777 108.1L50.7572 95.1754L45.4367 108.1H56.0777Z" fill="white"/>
<path d="M70.417 117.95L73.0148 112.05C75.8375 114.125 80.0839 115.55 84.1055 115.55C88.6767 115.55 90.5252 114.025 90.5252 111.95C90.5252 105.6 71.0664 109.975 71.0664 97.5C71.0664 91.8 75.6376 87 85.2046 87C89.451 87 93.6725 87.975 96.8449 89.95L94.4469 95.85C91.2995 94.1 88.1521 93.225 85.2046 93.225C80.6334 93.225 78.785 94.975 78.785 97.05C78.785 103.3 98.2437 99.025 98.2437 111.4C98.2437 116.975 93.5726 121.8 84.0056 121.8C78.785 121.9 73.3645 120.25 70.417 117.95Z" fill="white"/>
<path d="M103.562 87.6504H111.281V121.35H103.562V87.6504Z" fill="white"/>
<path d="M149.974 87.6504V121.35H143.555L126.819 100.875V121.35H119.2V87.6504H125.62L142.256 108.125V87.6504H149.974Z" fill="white"/>
<path d="M155.845 104.5C155.845 94.4246 163.563 87.0996 174.204 87.0996C184.746 87.0996 192.564 94.4246 192.564 104.5C192.564 114.575 184.746 121.9 174.204 121.9C163.563 121.9 155.845 114.45 155.845 104.5ZM184.546 104.5C184.546 98.0496 180.099 93.6746 174.104 93.6746C168.134 93.6746 163.663 98.0496 163.663 104.5C163.663 110.95 168.109 115.325 174.104 115.325C180.099 115.225 184.546 110.85 184.546 104.5Z" fill="white"/>
<path d="M181.538 71.5899C181.041 71.5778 180.543 71.5698 180.046 71.539C178.677 71.4557 177.335 71.1146 176.093 70.5336C173.349 69.2534 171.333 67.2506 170.109 64.4677C169.565 63.2675 169.251 61.9763 169.182 60.6607C169.077 58.8132 169.519 56.9758 170.454 55.3777C170.573 55.174 170.701 54.9756 170.838 54.7503H170.599C170.036 54.7624 169.474 54.8066 168.914 54.7798C167.881 54.7248 166.862 54.5114 165.895 54.1471C162.974 53.068 160.809 51.1792 159.651 48.2489C159.095 46.84 158.829 45.3761 158.999 43.856C159.143 42.4772 159.573 41.1433 160.261 39.939C160.313 39.8465 160.36 39.75 160.417 39.6427C160.112 39.6065 159.804 39.5877 159.497 39.5864C158.989 39.6119 158.482 39.6615 157.977 39.7272C155.334 40.0689 152.753 40.7791 150.309 41.8372C147.716 42.9436 145.326 44.4705 143.233 46.356C141.028 48.3668 139.275 50.6859 138.111 53.442C137.493 54.9099 137.096 56.4612 136.934 58.0453C136.839 58.9555 136.926 59.8912 136.991 60.8108C137.05 61.4188 137.148 62.0224 137.285 62.6178C137.566 64.1302 138.095 65.5859 138.851 66.9262C139.052 67.2734 139.306 67.5965 139.545 67.9397C139.537 67.3338 139.473 66.7748 139.533 66.2278C139.668 65.1687 139.982 64.1401 140.462 63.1862C141.101 61.8652 141.938 60.6492 142.944 59.5802C143.264 59.2397 143.628 58.9421 143.973 58.6258C143.966 58.6828 143.951 58.7387 143.93 58.792C143.492 59.6044 143.088 60.4314 142.873 61.339C142.706 62.0374 142.512 62.7304 142.384 63.4355C142.31 63.9313 142.27 64.4316 142.264 64.9329C142.21 65.9183 142.258 66.9067 142.41 67.882C142.557 68.8461 142.836 69.7855 143.238 70.6743C143.507 71.236 143.759 71.8044 144.068 72.3406C144.867 73.7196 145.909 74.9427 147.145 75.9506C148.246 76.8612 149.459 77.6271 150.756 78.2295C151.806 78.7152 152.899 79.1007 154.022 79.381C154.145 79.4118 154.274 79.4265 154.454 79.4574C154.394 79.3434 154.367 79.2791 154.328 79.2228C153.011 77.267 152.51 75.0672 152.448 72.7561C152.421 71.9102 152.442 71.0635 152.511 70.2199C152.583 69.4859 152.696 68.7565 152.848 68.0349C153.063 66.9209 153.357 65.8284 153.883 64.8176C153.956 64.6932 154.037 64.5733 154.124 64.4584C154.163 64.4932 154.172 64.4986 154.174 64.5039C154.184 64.5428 154.195 64.5817 154.203 64.6206C154.683 67.0871 155.546 69.4022 156.965 71.4907C158.265 73.3996 159.901 74.9573 161.934 76.0605C164.24 77.3112 166.712 77.9225 169.345 77.775C170.156 77.7458 170.965 77.653 171.762 77.4975C175.366 76.7227 178.541 75.1221 181.145 72.4773C181.398 72.1975 181.637 71.9049 181.861 71.6006L181.811 71.539C181.722 71.5652 181.631 71.5823 181.538 71.5899ZM143.981 58.6177L144.002 58.5936C144.002 58.603 144.002 58.611 144.002 58.6204L143.981 58.6177Z" fill="#E45809"/>
<path d="M186.574 58.3523C186.149 58.4538 185.779 58.7156 185.542 59.0829C185.152 59.6312 184.678 60.1178 183.981 60.1875C183.27 60.2476 182.556 60.2574 181.843 60.217C181.047 60.1848 180.252 60.1003 179.458 60.0226C179.089 59.9864 178.724 59.918 178.357 59.8591C178.011 59.8028 177.665 59.7103 177.318 59.6888C177.179 59.6767 177.04 59.7092 176.921 59.7816C176.802 59.8539 176.71 59.9623 176.657 60.091C176.537 60.3591 176.657 60.5963 176.856 60.7827C177.814 61.709 178.824 62.5562 180.092 63.0535C180.814 63.3278 181.459 63.772 181.972 64.3484C182.401 64.8364 182.719 65.3645 182.445 66.0603C182.366 66.2627 182.556 66.5388 182.747 66.5161C182.943 66.5003 183.135 66.4509 183.314 66.3699C184.533 65.7384 185.63 64.8945 186.552 63.8779C187.419 62.9516 187.76 61.8497 187.806 60.7331C187.799 59.9743 187.697 59.3456 187.411 58.7585C187.228 58.3684 186.995 58.2598 186.574 58.3523Z" fill="#E45809"/>
<path d="M189.745 47.6966C189.427 46.6456 188.781 45.8279 187.917 45.1831C187.38 44.7809 186.796 44.4673 186.257 44.0798C183.82 42.3318 181.601 40.2985 179.648 38.0234C179.402 37.7199 179.211 37.3754 179.085 37.006C178.961 36.6695 178.964 36.2901 178.881 35.9335C178.663 34.9567 178.139 34.0745 177.385 33.4147C176.62 32.7643 175.769 32.2229 174.856 31.8061C174.46 31.6171 174.05 31.4468 173.706 31.2913C175.576 30.0246 175.681 28.7189 175.296 27.7148C174.248 25.8153 170.967 24.8408 169.482 24.4869C168.676 24.3046 167.767 24.1343 166.75 23.9936C149.691 21.1142 140.619 33.6319 140.619 33.6319C135.17 39.884 134.05 46.9351 134.133 51.9862C134.133 52.135 134.133 52.2851 134.133 52.4339C134.133 52.4862 134.133 52.5372 134.133 52.5894C134.133 52.7315 134.143 52.8736 134.147 53.0157C134.147 53.0935 134.159 53.1712 134.164 53.2503C134.231 54.9514 134.449 57.0802 135.05 58.796C135.05 58.6821 135.05 58.5708 135.05 58.4582C135.074 57.5752 135.153 56.6946 135.287 55.8214C135.505 54.7425 135.793 53.6786 136.147 52.6364C136.204 52.5014 136.253 52.3631 136.293 52.2221C136.528 51.5653 136.789 50.9165 137.075 50.2757C139.007 46.0009 141.963 42.2663 145.682 39.4015C147.788 37.7663 150.138 36.4725 152.647 35.5676C154.57 34.8628 156.587 34.4441 158.632 34.3249C160.096 34.2571 161.563 34.3416 163.01 34.5769C163.573 34.6641 164.115 34.7713 164.703 34.6346C165.92 34.355 167.09 33.9036 168.179 33.2941C167.089 34.0099 161.493 38.0891 164.066 44.8895C166.751 51.9849 174.091 51.1041 176.081 50.2288C176.026 50.4393 175.979 50.6135 175.937 50.7891C175.733 51.6444 175.576 52.5023 175.713 53.3911C175.797 54.074 176.01 54.7347 176.343 55.3375C177.367 57.0721 178.994 57.7598 180.909 57.8939C181.844 57.939 182.78 57.829 183.679 57.5681C185.522 57.0775 187.067 56.1525 188.164 54.5533C188.457 54.127 188.567 53.6726 188.406 53.19C188.202 52.5265 187.863 51.9121 187.41 51.385C186.958 50.8578 186.402 50.4291 185.777 50.1256C185.269 49.8776 184.994 49.4754 184.998 48.9044C184.998 48.529 185.266 48.2998 185.636 48.2649C186.173 48.214 186.655 48.643 186.804 49.1644C186.922 49.5257 187.088 49.8697 187.297 50.1872C187.424 50.3619 187.585 50.5099 187.77 50.6229C188.583 51.2074 189.423 50.7422 189.707 50.0022C189.982 49.2602 189.995 48.4471 189.745 47.6966ZM168.378 33.2405L168.366 33.1989L168.402 33.1801C168.396 33.2009 168.388 33.2211 168.378 33.2405ZM179.484 43.3198C178.097 42.8989 176.709 42.4762 175.321 42.0517C174.957 41.9404 174.589 41.8399 174.23 41.7112C174.129 41.6763 173.998 41.5664 173.987 41.4779C173.967 41.3077 174.136 41.3077 174.264 41.2983L178.139 40.9846C178.14 40.9895 178.14 40.9945 178.139 40.9994C178.434 40.9819 178.726 40.9591 179.02 40.9484C179.117 40.9361 179.215 40.9622 179.293 41.0211C179.371 41.08 179.422 41.167 179.437 41.2634C179.571 41.8345 179.705 42.4042 179.848 42.9753C179.927 43.2957 179.802 43.4163 179.484 43.3198Z" fill="#E45809"/>
<path d="M167.835 21.1425C169.132 21.3234 170.292 21.5423 171.319 21.7766C172.54 22.0658 173.734 22.4584 174.889 22.9501L180.199 7.71178C178.687 8.60957 177.275 9.48497 175.819 10.2604C174.802 10.7981 174.344 11.3305 174.523 12.604C174.648 13.6502 174.411 14.7079 173.852 15.599C173.293 16.4902 172.446 17.1602 171.453 17.4962C170.466 17.8859 169.381 17.9455 168.358 17.6662C167.335 17.3869 166.429 16.7834 165.773 15.9453C165.131 15.1156 164.772 14.0999 164.748 13.0487C164.725 11.9975 165.038 10.9666 165.643 10.1088C165.963 9.65039 166.343 9.24716 166.607 8.91286C164.932 6.0351 162.823 3.25039 161.272 0.600098C159.74 3.26418 157.663 6.06612 156.01 8.95422C156.277 9.28163 156.661 9.68658 156.983 10.1432C157.594 10.9959 157.916 12.024 157.901 13.0752C157.886 14.1264 157.535 15.1448 156.9 15.9797C156.252 16.824 155.351 17.4356 154.331 17.7236C153.31 18.0117 152.224 17.961 151.234 17.5789C150.238 17.2521 149.385 16.5894 148.818 15.7027C148.252 14.8161 148.007 13.7598 148.125 12.7125C148.296 11.4374 147.829 10.9101 146.81 10.3793C145.338 9.61765 143.92 8.7526 142.399 7.86687L147.33 20.062C147.33 20.062 147.356 20.1223 147.406 20.2154L147.872 21.3648L148.529 23.0001H148.756C153.827 20.9788 160.204 19.8432 167.835 21.1425Z" fill="#E45809"/>
</svg>
