<svg width="24" height="16" viewBox="0 0 24 16" fill="none" xmlns="http://www.w3.org/2000/svg"><path d="M23.5615 6.28206C23.2557 6.07735 22.7928 5.97411 22.186 5.97411H20.5971L20.0063 9.10731H17.9247L18.0585 8.39645H19.3124L19.461 7.59805L18.2078 7.59981L18.342 6.89213H19.6336L19.8054 5.97429H17.1825L16.6217 8.94633H15.6591L16.2237 5.97414H14.8526L14.2918 8.94617H13.3541L13.9192 5.97414H12.5488L11.9573 9.10734H9.86077L9.99331 8.39648H11.2523L11.401 7.60261L10.1433 7.60137L10.2767 6.89228H11.5828L11.7536 5.97406H3.57992L3.1147 8.45689L2.18821 5.97406H0.765644L0 10.026H1.35857L1.82199 7.47473L2.72104 10.026H7.59003L8.18202 6.89189H8.94351L8.35153 10.026H21.1628L21.5343 8.04764L22.1351 10.026H23.4944L22.8717 8.40945L23.0142 8.3795C23.3279 8.31379 23.5726 8.17267 23.743 7.96109C23.9133 7.74757 24 7.47344 24 7.14416C24 6.76081 23.8565 6.47876 23.5611 6.28182L23.5615 6.28206ZM6.40779 9.10731H4.32818L4.46251 8.39645H5.76692L5.91478 7.59578H4.62294L4.74736 6.89233H6.82393L6.4074 9.1073L6.40779 9.10731ZM22.4415 7.74248C22.3048 7.83585 22.1066 7.8813 21.8356 7.8813H21.5669L21.773 6.79394H21.9707C22.1957 6.79394 22.3598 6.82917 22.473 6.90105C22.5614 6.95742 22.6665 7.06894 22.6665 7.27982C22.6662 7.53492 22.5439 7.67198 22.4411 7.74245L22.4415 7.74248Z" fill="#83BA3B"/></svg>