<svg width="72" height="45" viewBox="0 0 72 45" fill="none" xmlns="http://www.w3.org/2000/svg">
<path fill-rule="evenodd" clip-rule="evenodd" d="M12.5374 21.8394C12.7097 21.9096 12.8661 21.999 12.9746 22.1138C13.0575 22.2 13.1214 22.2893 13.1756 22.3883C13.3288 22.6691 13.3575 22.9627 13.3543 23.1573C13.3543 23.2977 13.3352 23.3871 13.3352 23.3871C13.3352 23.3871 13.3256 23.4637 13.3097 23.5849C13.2714 23.8626 13.198 24.3859 13.1246 24.8231C13.0575 25.2188 12.9778 25.5443 12.9778 25.5443C12.9778 25.5443 12.7831 26.4218 12.0555 26.808C11.328 27.1941 10.3004 27.1526 10.3004 27.1526L7.66456 27.1398L7.12846 30.3948H5.76904L7.22419 21.6064H8.84847H11.0312C11.0312 21.6064 11.1333 21.6064 11.2929 21.6128C11.4652 21.6192 11.7077 21.6384 11.9566 21.683C12.1545 21.7181 12.3555 21.7692 12.5374 21.8394ZM11.6471 25.222C11.8066 24.3859 11.9279 23.6807 11.9279 23.6647C11.9279 23.6631 11.9285 23.6585 11.9295 23.6512C11.9344 23.6149 11.9481 23.5135 11.9375 23.3967C11.9279 23.3009 11.9024 23.1924 11.8353 23.1095C11.7843 23.0456 11.6247 23.0042 11.4237 22.9786C11.1907 22.9467 10.9067 22.9371 10.6929 22.9339C10.5047 22.9308 10.3706 22.9339 10.3706 22.9339L8.37618 22.9276L7.89113 25.8474L10.093 25.8538C10.093 25.8538 10.594 25.873 11.0599 25.774C11.3407 25.7134 11.5864 25.5411 11.6471 25.222ZM23.4255 24.0508L18.4346 24.0572L18.2335 25.2954H21.4278L17.4262 29.1279L17.2092 30.3948L22.3692 30.3916L22.5735 29.1662L19.0696 29.1726L23.2436 25.1869L23.4255 24.0508ZM30.1938 21.6064H31.5022L30.0375 30.3948L28.7259 30.3916L30.1938 21.6064ZM38.4301 24.054L37.176 24.0572L37.8142 30.3948L39.3332 30.3884L41.283 25.9527L41.7297 30.3884H43.2742L46.0377 24.054H44.7357L42.8083 28.5312L42.352 24.0508L40.8043 24.0476L38.8737 28.5152L38.4301 24.054ZM26.2369 23.9711C26.7762 23.9647 27.4112 23.9902 27.7782 24.1083C28.8695 24.4657 29.0195 25.3751 28.8089 26.5686L28.627 27.6217L24.3669 27.6345C24.3669 27.6345 24.2839 27.8291 24.2488 28.5758C24.2456 28.595 24.2456 28.6077 24.2456 28.6173C24.1862 29.2285 24.8606 29.2411 25.0685 29.245C25.0842 29.2452 25.0974 29.2455 25.1072 29.246L25.1502 29.2482C25.3214 29.257 25.7066 29.277 26.3741 29.2013C27.108 29.1183 27.1814 28.2216 27.1814 28.2216L28.5376 28.2184L28.4547 28.5599L28.4526 28.5685C28.4417 28.6157 28.3969 28.8078 28.2728 29.0736C28.1388 29.3608 27.9505 29.6034 27.9505 29.6034C27.9505 29.6034 27.5293 30.165 26.7315 30.3533C25.9337 30.5416 24.8742 30.4586 24.8742 30.4586C24.8742 30.4586 24.3701 30.4714 23.7765 30.2416C23.183 30.015 23.0202 29.5268 22.9277 29.0034C22.8351 28.4769 23.1479 26.9037 23.1479 26.9037C23.1479 26.9037 23.3042 25.4805 23.8308 24.8295C24.3573 24.1785 25.2827 24.0445 25.2827 24.0445C25.4774 24.003 25.7167 23.9774 26.2369 23.9711ZM24.5743 26.4155L27.4942 26.4186C27.4942 26.4186 27.6026 25.8953 27.5005 25.5507C27.4559 25.4039 27.2899 25.3049 27.1144 25.2698C26.5879 25.1613 25.9401 25.2092 25.6976 25.2315C25.455 25.2539 25.1966 25.2826 24.9923 25.4358C24.7913 25.589 24.6892 25.9527 24.6892 25.9527L24.5743 26.4155ZM35.8166 24.1115C35.4496 23.9934 34.8146 23.9679 34.2753 23.9743C33.7551 23.9806 33.5158 24.0062 33.3211 24.0476C33.3211 24.0476 32.3957 24.1817 31.8692 24.8327C31.3426 25.4836 31.1863 26.9069 31.1863 26.9069C31.1863 26.9069 30.8735 28.4801 30.9661 29.0066C31.0586 29.53 31.2214 30.0182 31.8149 30.2448C32.4085 30.4745 32.9127 30.4618 32.9127 30.4618C32.9127 30.4618 33.9721 30.5448 34.7699 30.3565C35.5677 30.1682 35.9889 29.6066 35.9889 29.6066C35.9889 29.6066 36.1772 29.364 36.3112 29.0768C36.4353 28.811 36.4801 28.6189 36.491 28.5717L36.4931 28.5631L36.5761 28.2216L35.2198 28.2248C35.2198 28.2248 35.1464 29.1215 34.4125 29.2045C33.7759 29.2768 33.396 29.2619 33.2137 29.2547C33.1867 29.2537 33.1641 29.2527 33.1456 29.2524C33.136 29.252 33.1235 29.2516 33.1085 29.2514C32.9024 29.2472 32.2245 29.2333 32.284 28.6237C32.284 28.6141 32.284 28.6014 32.2872 28.5822C32.3223 27.8355 32.4053 27.6408 32.4053 27.6408L36.6654 27.6281L36.8473 26.575C37.0579 25.3783 36.9079 24.4657 35.8166 24.1115ZM35.5198 26.4186L32.5999 26.4155L32.7148 25.9527C32.7148 25.9527 32.8169 25.589 33.018 25.4358C33.219 25.2826 33.4807 25.2539 33.7232 25.2315C33.9657 25.2092 34.6135 25.1613 35.1401 25.2698C35.3156 25.3049 35.4815 25.4039 35.5262 25.5507C35.6283 25.8921 35.5198 26.4186 35.5198 26.4186ZM47.5439 24.0572L48.3832 28.6907L50.7542 24.054L52.0881 24.0668L48.6704 30.6884C48.6704 30.6884 48.0513 31.8882 47.6684 32.1914C47.2854 32.4945 47.0493 32.6317 46.7366 32.6636L46.6527 32.6724C46.3982 32.6991 46.2678 32.7127 45.9962 32.6636L45.6771 32.6062L45.875 31.4223C45.875 31.4223 46.4047 31.5212 46.7174 31.3968C47.0333 31.2723 47.2854 30.7362 47.2854 30.7362L47.445 30.4682L46.21 24.054L47.5439 24.0572ZM15.3201 24.4912C15.7445 24.2583 16.2423 24.0508 16.7688 24.0508H17.5283L17.3113 25.2762L16.5901 25.2794C15.5562 25.2794 15.0265 26.157 14.8988 26.8654L14.2798 30.3597H12.882L13.9989 24.0508H15.3935L15.3201 24.4912Z" fill="#D13239"/>
<path fill-rule="evenodd" clip-rule="evenodd" d="M42.3645 15.5655L43.9856 12.3074C43.9856 12.3074 47.5373 12.2372 50.6008 12.7126C53.6643 13.1849 56.466 13.9125 56.4054 13.9444L48.6382 18.0067C48.6382 18.0067 46.8225 16.8579 44.5696 16.1527C43.2931 15.7761 42.3645 15.5655 42.3645 15.5655ZM32.0955 14.0338L32.4338 15.9325C32.4338 15.9325 33.9974 15.5176 35.8706 15.2942C38.2767 14.9656 40.8392 15.3166 40.8392 15.3166L41.8029 12.3839C41.8029 12.3839 38.8894 12.5786 36.6907 12.9871C34.4952 13.3955 32.0955 14.0338 32.0955 14.0338ZM24.8645 19.0438L22.9211 17.7354C22.9211 17.7354 24.6794 16.7366 27.0185 15.8048C29.3543 14.873 30.6021 14.4837 30.6021 14.4837L30.9978 16.3377C30.9978 16.3377 28.748 17.0908 27.4588 17.7003C26.1249 18.2684 24.8645 19.0438 24.8645 19.0438ZM20.0491 22.3306H15.8591C15.8591 22.3306 17.493 21.0797 18.3163 20.5404C19.1651 19.9565 21.166 18.7183 21.166 18.7183L23.5338 19.8256C23.5338 19.8256 22.3211 20.5947 21.6542 21.0829C20.9873 21.5712 20.0491 22.3306 20.0491 22.3306ZM52.5729 24.6857L53.9483 24.6889L54.0312 24.156C54.0312 24.156 54.178 23.1922 54.5067 23.0072C54.612 22.9465 54.7811 22.8923 54.9758 22.8572C55.3364 22.7934 55.7927 22.787 56.1661 22.7997L56.197 22.8008C56.7454 22.8191 56.965 22.8265 57.5351 22.8923C58.1159 22.9593 57.9691 23.5209 57.9691 23.5209L57.8542 24.3602C57.8542 24.3602 57.8031 24.7367 57.6691 24.9697C57.551 25.1771 57.2255 25.3175 57.0373 25.3782C56.5841 25.525 55.0332 25.9206 55.0332 25.9206L53.8142 26.2717C53.8142 26.2717 53.0643 26.4887 52.6463 26.9514C52.2251 27.4173 52.0591 27.9438 52.0017 28.2182C51.9442 28.4927 51.6219 30.3914 51.6219 30.3914L58.202 30.3946L58.4222 29.0798L53.2175 29.0862L53.31 28.5501C53.31 28.5501 53.3707 27.9981 53.594 27.8162C53.6048 27.8073 53.6149 27.798 53.6256 27.7881C53.6841 27.7334 53.7634 27.6596 54.1142 27.5354C54.3631 27.446 55.2119 27.2194 55.2119 27.2194L57.1745 26.6833C57.1745 26.6833 58.2467 26.4089 58.6679 25.8217C59.0891 25.2377 59.2519 24.1177 59.2519 24.1177C59.2519 24.1177 59.3668 23.0295 59.2774 22.6881C59.1913 22.3466 58.869 21.9381 58.4764 21.7626C58.0839 21.5871 57.6755 21.485 56.4916 21.501C55.3077 21.5169 54.7205 21.5712 54.1206 21.7945C53.5206 22.0147 53.1728 22.4168 52.9526 22.9848C52.7133 23.5241 52.5729 24.6857 52.5729 24.6857ZM64.9608 27.1301L65.883 21.6031H64.2492L59.1625 27.0663L58.9328 28.4512H63.3812L63.0557 30.3914L64.4215 30.3946L64.7438 28.4512L66.0043 28.4544L66.2309 27.1301H64.9608ZM63.6014 27.1333L60.7262 27.1301L64.2268 23.3997L63.6014 27.1333ZM51.7368 20.1862L50.0296 18.8906L59.7561 15.1379L59.8313 15.1721C61.0696 15.7342 61.759 16.0472 62.9727 16.8355C63.4578 17.1515 64.1024 17.6557 64.2651 17.8152C64.7087 18.2588 65.1331 18.6864 65.3661 19.0885C65.7394 19.7331 65.7681 20.1862 65.7681 20.1862H51.7368Z" fill="#B3B2B1"/>
</svg>
