<svg width="72" height="46" viewBox="0 0 72 46" fill="none" xmlns="http://www.w3.org/2000/svg">
<path d="M51.5789 28.7008H49.3157C48.6315 28.7008 48.1052 28.9113 47.7894 29.5955L43.4736 39.4376H46.5263C46.5263 39.4376 47.0526 38.1218 47.1578 37.806C47.4736 37.806 50.4736 37.806 50.8947 37.806C50.9999 38.1745 51.2631 39.385 51.2631 39.385H53.9999L51.5789 28.7008ZM47.9999 35.5955C48.2631 34.9639 49.1578 32.5955 49.1578 32.5955C49.1578 32.6481 49.421 31.9639 49.5263 31.5955L49.7368 32.5429C49.7368 32.5429 50.3157 35.1218 50.421 35.6481H47.9999V35.5955Z" fill="#3362AB"/>
<path d="M43.6842 35.9112C43.6842 38.1217 41.6842 39.5954 38.579 39.5954C37.2632 39.5954 36 39.3322 35.3158 39.0164L35.7368 36.5954L36.1053 36.7533C37.0526 37.1743 37.6842 37.3322 38.8421 37.3322C39.6842 37.3322 40.579 37.0164 40.579 36.2796C40.579 35.8059 40.2105 35.4901 39.0526 34.9638C37.9474 34.4375 36.4737 33.5954 36.4737 32.0691C36.4737 29.9638 38.5263 28.5428 41.4211 28.5428C42.5263 28.5428 43.4737 28.7533 44.0526 29.0164L43.6316 31.3322L43.4211 31.1217C42.8947 30.9112 42.2105 30.7006 41.2105 30.7006C40.1053 30.7533 39.579 31.227 39.579 31.648C39.579 32.1217 40.2105 32.4901 41.2105 32.9638C42.8947 33.7533 43.6842 34.648 43.6842 35.9112Z" fill="#3362AB"/>
<path d="M18 28.8058L18.0526 28.5953H22.5789C23.2105 28.5953 23.6842 28.8058 23.8421 29.49L24.8421 34.2269C23.8421 31.7006 21.5263 29.6479 18 28.8058Z" fill="#F9B50B"/>
<path d="M31.2104 28.7007L26.6315 39.3849H23.5262L20.8947 30.4375C22.7894 31.648 24.3683 33.5428 24.9473 34.8586L25.2631 35.9638L28.1052 28.648H31.2104V28.7007Z" fill="#3362AB"/>
<path d="M32.421 28.648H35.3157L33.4736 39.3849H30.5789L32.421 28.648Z" fill="#3362AB"/>
<path d="M39.9875 8.93232L31.7633 8.9606L32.0125 24.0171L40.2367 23.9888L39.9875 8.93232Z" fill="#FF5F00"/>
<path d="M32.3046 16.5193C32.2537 13.4569 33.6256 10.7359 35.7743 8.97087C34.1524 7.69815 32.1191 6.93281 29.9149 6.94036C24.6931 6.95825 20.5396 11.26 20.6277 16.5592C20.7158 21.8585 25.0117 26.1313 30.2335 26.1134C32.4377 26.1059 34.4454 25.3267 36.0248 24.043C33.8181 22.3196 32.3555 19.5816 32.3046 16.5193Z" fill="#EB001B"/>
<path d="M51.3723 16.3904C51.4604 21.6896 47.3069 25.9914 42.0851 26.0092C39.8809 26.0168 37.8476 25.2515 36.2257 23.9788C38.4007 22.2137 39.7463 19.4927 39.6954 16.4304C39.6445 13.368 38.1824 10.6567 35.9752 8.9066C37.5547 7.62291 39.5623 6.84374 41.7665 6.83619C46.9883 6.8183 51.2847 11.1178 51.3723 16.3904Z" fill="#F79E1B"/>
</svg>
