<svg width="72" height="48" viewBox="0 0 72 48" fill="none" xmlns="http://www.w3.org/2000/svg">
<g clip-path="url(#clip0_268_157948)">
<path d="M18.2818 21.2339H13.9554C13.9554 20.5241 13.8722 20.0478 13.7057 19.805C13.4484 19.4463 12.7381 19.2669 11.575 19.2667C10.4456 19.2667 9.69787 19.37 9.33174 19.5767C8.96647 19.7844 8.78373 20.2356 8.78354 20.9305C8.78354 21.5593 8.94565 21.9732 9.26987 22.1722C9.50251 22.313 9.80998 22.3958 10.1923 22.4205L11.0646 22.482C12.9347 22.6058 14.1024 22.6929 14.5679 22.7433C16.0467 22.8923 17.1187 23.2855 17.7838 23.9226C18.307 24.4198 18.6187 25.0695 18.7187 25.8717C18.7804 26.4118 18.8095 26.9551 18.8059 27.4986C18.8059 28.8899 18.6732 29.9082 18.4077 30.5537C17.9263 31.7383 16.8439 32.4873 15.1605 32.8009C14.4549 32.9333 13.3763 32.9997 11.9244 33C9.50151 33 7.8134 32.8553 6.8601 32.5659C5.69029 32.2109 4.91875 31.4919 4.54548 30.4089C4.33734 29.8057 4.23373 28.8011 4.23462 27.3952H8.56053V27.7549C8.56053 28.5052 8.77595 28.9877 9.20679 29.2024C9.54551 29.3595 9.91472 29.4398 10.2881 29.4377H11.8787C12.6902 29.4377 13.2078 29.396 13.4316 29.3127C13.8294 29.1566 14.0906 28.9045 14.2151 28.5565C14.2884 28.2855 14.3219 28.0053 14.3144 27.7246C14.3144 26.9642 14.0371 26.5011 13.4825 26.3353C13.2744 26.2698 12.3098 26.1789 10.5887 26.0625C9.20599 25.9638 8.24573 25.8685 7.70794 25.7765C6.29163 25.5116 5.34793 24.966 4.87684 24.1395C4.46241 23.4367 4.25544 22.3737 4.25591 20.9505C4.25591 19.8676 4.36778 18.9993 4.59153 18.3456C4.81527 17.692 5.17587 17.1957 5.67331 16.8566C6.40315 16.3354 7.33595 16.0293 8.4717 15.9385C9.41743 15.8561 10.4665 15.8145 11.6188 15.8138C13.4343 15.8138 14.728 15.9177 15.5001 16.1255C17.3827 16.6312 18.3241 18.048 18.3241 20.3757C18.3241 20.5665 18.31 20.8527 18.2819 21.2342M37.305 33.0002V15.7227H45.9686C47.1569 15.7227 48.0629 15.8196 48.6867 16.0136C50.1115 16.4598 51.0683 17.3737 51.5571 18.7553C51.8098 19.4806 51.9363 20.5722 51.9365 22.0302C51.9365 23.7828 51.7972 25.0423 51.5186 25.8088C50.9628 27.3249 49.8206 28.197 48.0919 28.4249C47.8888 28.4591 47.0245 28.4887 45.4988 28.5138L44.7272 28.5395H41.955V33.0002H37.305ZM41.9553 24.5317H44.8544C45.7735 24.4986 46.3332 24.4272 46.5336 24.3175C46.8084 24.1664 46.993 23.8634 47.0848 23.4099C47.1437 23.1082 47.1731 22.659 47.173 22.0624C47.173 21.3316 47.1144 20.7895 46.9972 20.4362C46.8301 19.9403 46.4294 19.6379 45.7952 19.529C45.6695 19.5125 45.3688 19.5041 44.8932 19.5036H41.9557L41.9553 24.5317ZM61.8624 30.0143H55.6452L54.8097 33.0002H49.9989L55.1904 15.7227H62.2048L67.4596 33.0002H62.7497L61.8624 30.0143ZM60.9391 26.6486L58.7601 19.1591L56.6456 26.6486H60.9391Z" fill="#10298E"/>
<path d="M30.8869 18.1538C31.7984 18.1534 32.6983 18.3567 33.521 18.749C34.3437 19.1413 35.0682 19.7126 35.6416 20.4211L36.6439 18.2719C35.0072 16.7273 32.84 15.8697 30.5895 15.876C26.9254 15.876 23.791 18.0893 22.505 21.222H20.5504L19.396 23.6962H21.9104C21.8904 23.9268 21.88 24.158 21.8791 24.3896C21.8791 24.6704 21.8933 24.951 21.9216 25.2304H20.6583L19.5043 27.7053H22.5646C23.8874 30.7587 26.9826 32.9022 30.5891 32.9022C32.3329 32.9064 34.0387 32.393 35.4904 31.427V28.394C34.8682 29.1053 34.0897 29.6627 33.2159 30.0226C32.3421 30.3824 31.3968 30.535 30.4541 30.4683C29.5115 30.4016 28.5971 30.1174 27.7828 29.638C26.9684 29.1586 26.2761 28.4971 25.7603 27.7053H32.1682L33.322 25.2304H24.8177C24.7425 24.7223 24.7303 24.207 24.7815 23.696H34.0378L35.1915 21.222H25.5811C26.1183 20.2898 26.8915 19.5154 27.8229 18.9768C28.7543 18.4381 29.8111 18.1542 30.887 18.1535" fill="#FFBE00"/>
<path d="M30.887 18.227C31.7875 18.2261 32.6768 18.4269 33.4896 18.8145C34.3024 19.2022 35.0181 19.7669 35.5842 20.4672L35.659 20.5595L35.7096 20.4518L36.7118 18.3026L36.7341 18.2536L36.6956 18.2167C35.2223 16.8364 33.325 15.9956 31.3128 15.8314C29.3006 15.6672 27.292 16.1892 25.6144 17.3125C24.194 18.2626 23.088 19.6133 22.4366 21.1932L22.5051 21.1471H20.5027L20.483 21.1897L19.329 23.6644L19.2793 23.77H21.9106L21.8366 23.6894C21.8166 23.9221 21.8062 24.1553 21.8053 24.389C21.8053 24.6667 21.8195 24.9527 21.8479 25.2374L21.9219 25.1558H20.6116L20.5919 25.1983L19.4372 27.673L19.3881 27.7787H22.5649L22.4968 27.7339C23.8763 30.9179 27.053 32.9756 30.5895 32.9756C32.3477 32.9802 34.0677 32.4627 35.5314 31.4885L35.5639 31.4668V28.1963L35.4343 28.3443C34.8196 29.0469 34.0504 29.5975 33.1872 29.9529C32.324 30.3084 31.3902 30.4591 30.459 30.3931C29.5278 30.3272 28.6245 30.0465 27.82 29.5729C27.0155 29.0994 26.3316 28.446 25.822 27.6638L25.7601 27.779H32.2157L32.2355 27.7364L33.3895 25.2611L33.4391 25.1558H24.8174L24.8911 25.2197C24.8167 24.7176 24.8047 24.2082 24.8552 23.7031L24.7812 23.7699H34.0852L34.105 23.7273L35.2587 21.2528L35.3084 21.1471H25.5812L25.645 21.2586C26.1779 20.3395 26.9422 19.576 27.8619 19.0441C28.7816 18.5122 29.8246 18.2304 30.887 18.227ZM25.5812 21.2955H35.1912L35.1237 21.1898L33.9704 23.6644L34.0375 23.6218H24.714L24.7069 23.6889C24.6562 24.2059 24.6686 24.7271 24.7437 25.2411L24.7536 25.305H33.3221L33.255 25.1991L32.1013 27.6736L32.168 27.631H25.6223L25.698 27.7456C26.2203 28.5468 26.921 29.2161 27.7453 29.7012C28.5695 30.1863 29.4949 30.4739 30.449 30.5415C31.403 30.609 32.3597 30.4548 33.2441 30.0907C34.1285 29.7267 34.9166 29.1628 35.5466 28.4432L35.4162 28.3942V31.4271L35.4491 31.3659C34.0098 32.3234 32.3186 32.8323 30.5899 32.8279C27.1123 32.8279 23.9895 30.8051 22.6337 27.6754L22.614 27.631H19.5047L19.5724 27.7374L20.7256 25.261L20.6582 25.3044H22.0043L21.9957 25.2222C21.9678 24.9425 21.9532 24.6616 21.9532 24.389C21.9532 24.1794 21.9637 23.9543 21.9845 23.7019L21.9911 23.6216H19.3964L19.4631 23.7272L20.6172 21.2527L20.5505 21.2953H22.5544L22.5732 21.2492C23.2139 19.6966 24.3012 18.3692 25.6973 17.4353C27.347 16.3312 29.3218 15.8182 31.3003 15.9797C33.2787 16.1412 35.1442 16.9677 36.593 18.3247L36.5765 18.2392L35.5749 20.3889L35.6999 20.3731C35.0667 19.5918 34.2527 18.9764 33.3284 18.58C32.4042 18.1837 31.3973 18.0183 30.3948 18.0982C29.3923 18.178 28.4243 18.5007 27.5744 19.0384C26.7245 19.5761 26.0182 20.3125 25.5167 21.1842L25.4522 21.2958L25.5812 21.2955Z" fill="#10298E"/>
</g>
<defs>
<clipPath id="clip0_268_157948">
<rect width="65.6934" height="18" fill="white" transform="translate(3 15)"/>
</clipPath>
</defs>
</svg>
